<svg width="182mm" height="271mm" version="1.1" viewBox="0 0 182 271" xmlns="http://www.w3.org/2000/svg">
  <defs>
    <clipPath id="clipPath8247">
      <rect y="-1.2668e-5" width="182" height="271" style="fill:#00ffff"/>
    </clipPath>
  </defs>
  <g clip-path="url(#clipPath8247)">
    <rect x="39" y="124" width="12.169" height="4.9" style="fill:#624823"/>
    <rect x="3.8841" y="141" width="34.314" height="9.2507" style="fill:#935428"/>
    <rect x="8.6805" y="150" width="24.749" height="11.276" style="fill:#7d3522"/>
    <rect x="64.129" y="39.233" width="3.6736" height="5.6857" style="fill:#66461c"/>
    <rect x="121.75" y="108.88" width="20.122" height="16.212" style="fill:#18070f"/>
    <rect x="48.474" y="136" width="42.526" height="28.387" style="fill:#6b4e2a"/>
    <rect x="69.474" y="160.13" width="14.782" height="38.312" style="fill:#32201d"/>
    <rect x="94" y="156.49" width="10" height="56.512" style="fill:#1e1727"/>
    <rect x="74.129" y="206" width="7.0708" height="27.569" style="fill:#c99741"/>
    <rect x="65" y="203" width="9.8" height="30.023" style="fill:#b5863b"/>
    <rect x="49.701" y="233.04" width="52.108" height="13.182" style="fill:#9a6832"/>
    <rect x="54.74" y="219.12" width="12.528" height="17.783" style="fill:#af833e"/>
    <rect x="51.905" y="220.77" width="12.528" height="17.783" style="fill:#af833e"/>
    <rect x="26.546" y="130.98" width="4.6095" height="10.189" style="fill:#6a432b"/>
    <rect x="43.195" y="127.34" width="6.0479" height="5.6177" style="fill:#624823"/>
    <rect x="43.303" y="122.64" width="13.081" height="4.8282" style="fill:#624823"/>
    <rect x="100.79" y="152.91" width="16.18" height="61.703" style="fill:#161422"/>
    <rect x="39.799" y="196.83" width="64.929" height="44.455" style="fill:#b58236"/>
    <rect x="87.91" y="212.67" width="46.323" height="22.334" style="fill:#643213"/>
    <rect x="119.61" y="107.46" width="22.529" height="22.741" style="fill:#2b1314"/>
    <rect x="100.14" y="25.685" width="4.2" height="2.6" style="fill:#828d57"/>
    <rect x="73.422" y="36.277" width="20.163" height="1.4049" style="fill:#a77e3a"/>
    <rect x="92.89" y="36.558" width="10.975" height="3.8819" style="fill:#55341f"/>
    <rect x="103.59" y="25.473" width="20.033" height="78.311" style="fill:#35252f"/>
    <rect x="59.636" y="100" width="21.66" height="16.526" style="fill:#402022"/>
    <rect x="62.294" y="78.493" width="4.7401" height="21.718" style="fill:#33161d"/>
    <rect x="81.718" y="25.625" width="19" height="7.6" style="fill:#674422"/>
    <rect x="117.38" y="34.349" width="3.5204" height="5.5121" style="fill:#92945c"/>
    <rect x="113.86" y="29.181" width="3.5204" height="5.5121" style="fill:#92945c"/>
    <rect x="-.14274" y="52.124" width="57.368" height="13.27" style="fill:#ada96d"/>
    <rect x="39" y="65" width="18.794" height="29" style="fill:#5d5c45"/>
    <rect x="20.412" y="93.196" width="40.047" height="20.996" style="fill:#657355"/>
    <rect x="15.273" y="113.98" width="6.3119" height="12.183" style="fill:#89653b"/>
    <rect x="-.50953" y="104" width="16.01" height="11" style="fill:#545c4f"/>
    <rect x="1.3252" y="114.28" width="14" height="11" style="fill:#545c4f"/>
    <rect x="36.882" y="135.29" width="5.8279" height="6.0248" style="fill:#a9823f"/>
    <rect x="20.198" y="113.48" width="23.694" height="18.276" style="fill:#937f53"/>
    <rect x="49.056" y="127.96" width="4.9483" height="15.087" style="fill:#291218"/>
    <rect x="55.641" y="122.2" width="6.0248" height="14.226" style="fill:#291218"/>
    <rect x="40" y="110" width="29.055" height="13.01" style="fill:#3b2e1e"/>
    <rect x="59.201" y="48.707" width="3.2459" height="57.679" style="fill:#45241d"/>
    <rect x="-1.6473" y="36.565" width="65.134" height="16.435" style="fill:#b7ba80"/>
    <rect x="-.61319" y="118.14" width="10.006" height="2.4053" style="fill:#5e3626"/>
    <rect x="4.2629" y="149" width="2.4865" height="1.0654" style="fill:#452f3b"/>
    <rect x="-1.2811" y="161" width="33.487" height="11.379" style="fill:#a98347"/>
    <rect x="-1.0162" y="171.22" width="27.284" height="13.657" style="fill:#76604c"/>
    <rect x="20.164" y="181.47" width="31.866" height="16.862" style="fill:#422427"/>
    <rect x="-.38" y="178" width="12" height="13.03" style="fill:#5c4544"/>
    <rect x="7.7707" y="189.88" width="8.0058" height="12.015" style="fill:#332b37"/>
    <rect x="9.6484" y="185.92" width="8.0058" height="12.374" style="fill:#332b37"/>
    <rect x="11.38" y="182.88" width="8.9388" height="12.28" style="fill:#332b37"/>
    <rect x="20.965" y="175.5" width="6.6356" height="4.5042" style="fill:#332b37"/>
    <rect x="21.283" y="216.85" width="26.401" height="5.8828" style="fill:#21192e"/>
    <rect x="16.056" y="208.2" width="7.1671" height="14.409" style="fill:#21192e"/>
    <rect x="165.5" y="154.43" width="4.0383" height="10.155" style="fill:#512323"/>
    <rect x="163.73" y="152.25" width="1.5009" height="1.0207" style="fill:#512323"/>
    <rect x="115.59" y="125.07" width="66.551" height="88.493" style="fill:#090619"/>
    <rect x="125.55" y="152.06" width="22.387" height="14.508" style="fill:#755837"/>
    <rect x="98.85" y="143.9" width="16.753" height="10.111" style="fill:#17111a"/>
    <rect x="108.82" y="102.74" width="13.383" height="29.891" style="fill:#936129"/>
    <rect x="134" y="211.21" width="19.69" height="35.022" style="fill:#1a1225"/>
    <rect x="127" y="164" width="21" height="48" style="fill:#361a1f"/>
    <rect x="66.925" y="40" width="37.075" height="56" style="fill:#c99d4c"/>
    <rect x="81" y="95.55" width="28.082" height="16.45" style="fill:#5c3a1f"/>
    <rect x="61" y="123" width="47.928" height="13.558" style="fill:#f0cb71"/>
    <rect x="69" y="114" width="41" height="7.2" style="fill:#e0bb5d"/>
    <rect x="62.701" y="136.43" width="40.314" height="4.2" style="fill:#ffe892"/>
    <rect x="80" y="143" width="17.167" height="3.4" style="fill:#e5c36a"/>
    <rect x="119.83" y="51" width="3.7366" height="50" style="fill:#150d1e"/>
    <rect x="123.24" y="75.77" width="5.7912" height="28.23" style="fill:#261318"/>
    <rect x="111" y="110.39" width="16" height="6.6105" style="fill:#5c2a0b"/>
    <rect x="121.67" y="124.84" width="20.329" height="9.4614" style="fill:#896624"/>
    <rect x="112" y="121" width="17" height="4.5" style="fill:#5c2a0b"/>
    <rect x="119.93" y="125.36" width="2.5716" height="4.5389" style="fill:#33150b"/>
    <rect x="108.13" y="131.57" width="6.7169" height="5.138" style="fill:#814c18"/>
    <rect x="97" y="141.78" width="12.167" height="6.518" style="fill:#82612f"/>
    <rect x="115.02" y="133.94" width="18.194" height="21.064" style="fill:#55412c"/>
    <rect x="103" y="136.43" width="13.355" height="5.3732" style="fill:#936e39"/>
    <rect x="114.68" y="132" width="10.419" height="4.9" style="fill:#936d40"/>
    <rect x="62" y="44.512" width="4.3075" height="52.488" style="fill:#33161d"/>
    <rect x="57" y="51.852" width="2.6" height="51.148" style="fill:#45241d"/>
    <rect x="61" y="115" width="6.8" height="7.2" style="fill:#3b1d1e"/>
    <rect x="51" y="127" width="2.6702" height="9.4" style="fill:#251928"/>
    <rect x="44" y="132" width="5.9225" height="10.843" style="fill:#251928"/>
    <rect x="37.995" y="141.28" width="12.005" height="22.722" style="fill:#312633"/>
    <rect x="35" y="146" width="1.5" height="17" style="fill:#372735"/>
    <rect x="26" y="163" width="26.015" height="22" style="fill:#493228"/>
    <rect x="14.116" y="179.96" width="11" height="11" style="fill:#332b37"/>
    <rect x="9.6517" y="188.25" width="3.1281" height="5.3102" style="fill:#402d3c"/>
    <rect x="5.0686" y="195" width="13.613" height="28.161" style="fill:#21192e"/>
    <rect x="22" y="194" width="25" height="24" style="fill:#946d48"/>
    <rect x="50" y="200" width="14" height="17" style="fill:#bf913f"/>
    <rect x="57.847" y="218.56" width="2.7469" height="3.5129" style="fill:#96632e"/>
    <rect x="46.173" y="222.01" width="11.739" height="11.181" style="fill:#af833e"/>
    <rect x="60" y="228" width="5.3" height="10" style="fill:#96632e"/>
    <rect x="68" y="233" width="4.2" height="6" style="fill:#5c3122"/>
    <rect x="41.087" y="225" width="5.1135" height="14.248" style="fill:#723e20"/>
    <rect x="49.635" y="245" width="3.9651" height="7.3239" style="fill:#71412c"/>
    <rect x="82" y="209.61" width="7.2" height="9.1" style="fill:#bf8a38"/>
    <rect x="87.699" y="213.99" width="3" height="5.3" style="fill:#bf893e"/>
    <rect x="97" y="221" width="3.8" height="5.7" style="fill:#a6643f"/>
    <rect x="77" y="221" width="6.4" height="4.2" style="fill:#935e27"/>
    <rect x="86" y="223" width="3.8" height="7.2" style="fill:#b27c33"/>
    <rect x="91" y="228.91" width="4.0985" height="5.785" style="fill:#a6612d"/>
    <rect x="97.645" y="233.78" width="3.3269" height="5.1418" style="fill:#975631"/>
    <rect x="77" y="227" width="5.3" height="6.4" style="fill:#b07934"/>
    <rect x="84" y="231" width="4.2" height="4.9" style="fill:#935c28"/>
    <rect x="90" y="237" width="2.3" height="2.3" style="fill:none"/>
    <rect x="73" y="232" width="4.2" height="5.7" style="fill:#7d4e2c"/>
    <rect x="133" y="223" width="8.3" height="7.9" style="fill:none"/>
    <rect x="133" y="217" width="3" height="4.5" style="fill:none"/>
    <rect x="-1.7208e-15" width="182" height="24" style="fill:#5b7050"/>
    <rect x="112" y="25.775" width="7.9143" height="6.4248" style="fill:#88905e"/>
    <rect x="116.2" y="31.589" width="3.5204" height="5.5121" style="fill:#92945c"/>
    <rect x="105" y="26" width="4.2" height="2.6" style="fill:#828d57"/>
    <rect x="-.24477" y="23.627" width="80.253" height="3.6082" style="fill:#979d67"/>
    <rect x="57" y="36.206" width="7.2072" height="7.4942" style="fill:#9ea170"/>
    <rect x="58" y="46" width="1.9" height="4.2" style="fill:#979c6e"/>
    <rect x="-.89899" y="58" width="36.799" height="43" style="fill:#6d684e"/>
    <rect x="37" y="56" width="6.4" height="7.6" style="fill:#6a6a41"/>
    <rect x="-1.2222" y="116.33" width="8.2297" height="2.4053" style="fill:#5e3626"/>
    <rect x="15.34" y="104" width="7.0602" height="10.177" style="fill:#4d6154"/>
    <rect x="27" y="102" width="4.9" height="5.3" style="fill:#6d7457"/>
    <rect x="35" y="104" width="2.3" height="1.9" style="fill:#6e755c"/>
    <rect x="-.8464" y="120" width="16.146" height="21.182" style="fill:#5e3626"/>
    <rect x="-.76543" y="114.05" width="3.8145" height="2.4053" style="fill:#5e3626"/>
    <rect x="-.77769" y="141" width="5.1762" height="9.3374" style="fill:#452f3b"/>
    <rect x="-.38" y="150" width="9.1" height="17" style="fill:#523739"/>
    <rect x="1.1" y="168" width="8.3" height="2.3" style="fill:#9a7448"/>
    <rect y="188" width="7.9552" height="7.1434" style="fill:#5a3930"/>
    <rect y="195" width="5.7" height="27.37" style="fill:#382134"/>
    <rect x="24" y="109" width="13" height="8.3" style="fill:#937f53"/>
    <rect x="25" y="119" width="12" height="11" style="fill:#aa8c46"/>
    <rect x="30" y="131.07" width="14.297" height="4.733" style="fill:#a9823f"/>
    <rect x="15.206" y="126" width="8.1942" height="15.148" style="fill:#644229"/>
    <rect x="22.99" y="131.21" width="4.6095" height="10.189" style="fill:#6a432b"/>
    <rect x="26.919" y="135.42" width="10.15" height="3.7483" style="fill:#6f4b1c"/>
    <rect x="18" y="143" width="14" height="7.2" style="fill:#955d32"/>
    <rect x="51" y="138" width="5.7" height="5.7" style="fill:#2a171d"/>
    <rect x="123.42" y="46.268" width="31.885" height="30.469" style="fill:#3f4f35"/>
    <rect x="129" y="73.703" width="53" height="33.661" style="fill:#4b5c4b"/>
    <rect x="132.31" y="106" width="21.69" height="8.6552" style="fill:#343325"/>
    <rect x="127.33" y="103.43" width="5.0747" height="5.3732" style="fill:#393620"/>
    <rect x="79" y="78" width="4.9" height="1.9" style="fill:none"/>
    <rect x="74" y="83.022" width="14" height="3.5776" style="fill:#86530e"/>
    <rect x="70.811" y="37.344" width="22.189" height="2.6892" style="fill:#dfb864"/>
    <rect x="68" y="42" width="27" height="15" style="fill:#e4b95f"/>
    <rect x="97" y="48" width="5.3" height="8.3" style="fill:#b99147"/>
    <rect x="153.78" y="104.72" width="9.8838" height="11.485" style="fill:#9a7e31"/>
    <rect x="163" y="104" width="19" height="17" style="fill:#4e4b40"/>
    <rect x="176" y="120.86" width="8.7" height="9.9403" style="fill:#594b3e"/>
    <rect x="142" y="116" width="34.108" height="10.06" style="fill:#b7a963"/>
    <rect x="154.34" y="133.53" width="28.695" height="18.907" style="fill:#5a3c35"/>
    <rect x="163.85" y="122" width="20.914" height="14" style="fill:#af9a56"/>
    <rect x="177" y="133" width="6" height="7.9" style="fill:#786d41"/>
    <rect x="151" y="128.04" width="12.963" height="5.8642" style="fill:#5a3c35"/>
    <rect x="159" y="127" width="4.9792" height="5.3344" style="fill:#9c9060"/>
    <rect x="174.51" y="170" width="8.4867" height="29" style="fill:#664b47"/>
    <rect x="170" y="171" width="4.2" height="15" style="fill:#362c3d"/>
    <rect x="169" y="152.06" width="13.979" height="18.06" style="fill:#49303f"/>
    <rect x="165" y="146" width="15" height="9.1404" style="fill:#512323"/>
    <rect x="158" y="136" width="7.2" height="7.6" style="fill:#58312e"/>
    <rect x="167" y="139" width="6.4" height="4.9" style="fill:#7f5246"/>
    <rect x="-.76" y="222" width="42" height="49" style="fill:#1c0d24"/>
    <rect x="40.666" y="252" width="141.33" height="19.949" style="fill:#16051b"/>
    <rect x="40.376" y="239" width="5.0239" height="13.37" style="fill:#211025"/>
    <rect x="53.513" y="246" width="128.49" height="6.0777" style="fill:#1c0813"/>
    <rect x="153" y="201" width="29.066" height="45.131" style="fill:#2d1e35"/>
    <rect x="102" y="237" width="48" height="9.4" style="fill:none"/>
    <rect x="58.427" y="241" width="42.469" height="5.1195" style="fill:#42201c"/>
    <rect x="79" y="235" width="11" height="3.8" style="fill:#653626"/>
    <rect x="93" y="239" width="7.9" height="5.7" style="fill:none"/>
    <rect x="50.942" y="160" width="19.058" height="39.131" ry="0" style="fill:#3b2a2e"/>
    <rect x="77.759" y="157.62" width="7.1516" height="14.585" style="fill:#53422c"/>
    <rect x="121" y="157" width="7.2" height="18" style="fill:#3a251c"/>
    <rect x="84" y="156.91" width="13" height="15.757" style="fill:#4a3a30"/>
    <rect x="73" y="171.56" width="21.655" height="14.512" style="fill:#48382d"/>
    <rect x="71" y="188" width="8.7" height="4.2" style="fill:#312121"/>
    <rect x="90.31" y="150" width="10.623" height="7.4459" style="fill:#573f27"/>
    <rect x="69.275" y="194" width="11.125" height="7.3747" style="fill:#211826"/>
    <rect x="82" y="186" width="7.9" height="20" style="fill:#241829"/>
    <rect x="119" y="178" width="4.5" height="34" style="fill:none"/>
    <rect x="130" y="163" width="4.5" height="5.3" style="fill:#583b27"/>
    <rect x="150" y="174" width="23" height="25" style="fill:#281d28"/>
    <rect x="150" y="153" width="16" height="19" style="fill:#362836"/>
    <rect x="154" y="144" width="7.6" height="9.4389" style="fill:#2d2235"/>
    <rect x="154" y="136" width="2.3" height="8.3" style="fill:#221424"/>
    <rect x="76" y="77" width="1.9" height="2.6" style="fill:none"/>
    <rect x="79" y="87.197" width="4.9" height="2.9035" style="fill:#885a27"/>
    <rect x="88" y="90" width="13" height="4.9" style="fill:#623b1f"/>
    <rect x="99" y="75" width="3.8" height="14" style="fill:#6f482a"/>
    <rect x="69" y="89.457" width="2.4865" height="6.7433" style="fill:#3a2228"/>
    <rect x="73" y="93" width="1.5" height="3.4" style="fill:#3d2220"/>
    <rect x="94" y="60" width="6" height="1.9" style="fill:#4c2915"/>
    <rect x="84" y="58" width="3.8" height="3.4" style="fill:#774e21"/>
    <rect x="68" y="59" width="8.3" height="1.9" style="fill:#754619"/>
    <rect x="68" y="62" width="7.6" height="1.5" style="fill:#714629"/>
    <rect x="87" y="62" width="9.1" height="3.8" style="fill:#ad8144"/>
    <rect x="82" y="60" width="3.4" height="5.3" style="fill:#7f542a"/>
    <rect x="97" y="42" width="5.7" height="3.8" style="fill:#55341f"/>
    <rect x="81.891" y="102.03" width="5.3753" height="10.098" style="fill:#a58540"/>
    <rect x="87.233" y="106" width="12.767" height="5.9048" style="fill:#a47f3a"/>
    <rect x="99.951" y="101.03" width="8.0375" height="10.925" style="fill:#7f5c1f"/>
    <rect x="63" y="124" width="4.5" height="6.4" style="fill:#855013"/>
    <rect x="127" y="51" width="21" height="3.8" style="fill:#7c8b52"/>
    <rect x="145" y="59" width="3.8" height="4.5" style="fill:#687447"/>
    <rect x="153" y="2" width="29.44" height="72" style="fill:#a8ab6d"/>
    <rect x="167" y="56" width="12" height="3.4" style="fill:#77845e"/>
    <rect x="169" y="62" width="7.9" height="7.2" style="fill:#767d54"/>
    <rect x="119" y="2" width="34.094" height="46" style="fill:#9ca36e"/>
    <rect x="1.5" y="14" width="181" height="12" style="fill:#788153"/>
    <rect x="4.9" y="46" width="15" height="5.3" style="fill:#8e9762"/>
    <rect x="3" y="40" width="11" height="4.9" style="fill:#8a905f"/>
    <rect x="54" y="148" width="14" height="9.1" style="fill:#4e3b30"/>
    <rect x="26" y="204" width="1.9" height="6" style="fill:#432226"/>
    <rect x="33.157" y="207.16" width="2.004" height="5.686" style="fill:#744740"/>
    <rect x="36" y="203" width="3.4" height="2.3" ry="0" style="fill:#461f21"/>
    <rect x="29" y="195" width="5.7" height="2.3" ry="0" style="fill:#633d2a"/>
    <rect x="40.899" y="209.85" width="2.4057" height="5.4878" ry="0" style="fill:#483132"/>
    <rect x="24" y="211" width="4.9" height="5.7" ry="0" style="fill:#2e1824"/>
    <rect x="104" y="217" width="3.8" height="3" style="fill:#794b0b"/>
    <rect x="111" y="217" width="7.6" height="3.4" style="fill:#965f2e"/>
    <rect x="121" y="218" width="6.8" height="4.9" style="fill:#814714"/>
    <rect x="122" y="225" width="6.4" height="7.6" style="fill:#522917"/>
    <rect x="115" y="229" width="4.5" height="3.4" style="fill:#381d1d"/>
    <rect x="105" y="228" width="3.8" height="4.5" style="fill:#421f19"/>
    <rect x="50" y="214" width="13" height="4.5" style="fill:#7f5132"/>
    <rect x="176" y="220" width="4.2" height="20" style="fill:#4e2320"/>
    <rect x="79.605" y="28" width="6.599" height="8.3306" style="fill:#a77e3a"/>
    <rect x="86" y="29" width="19" height="7.6" style="fill:#674422"/>
    <rect x="108" y="33.713" width="5.2354" height="7.3401" style="fill:#35211f"/>
    <rect x="75" y="30" width="4.8014" height="6.7248" style="fill:#66461c"/>
    <rect x="69" y="36" width="1.9" height="1.9" style="fill:#5b3a18"/>
    <rect x="90" y="62" width="2.6" height="1.9" style="fill:#623313"/>
    <rect x="71.952" y="61.952" width="1.5957" height="2.3062" style="fill:#5a3119"/>
    <rect x="109.02" y="101.3" width="18.51" height="7.4209" style="fill:#2b1a1d"/>
    <rect x="154.12" y="127.56" width="7.3644" height="1.1731" style="fill:#9c9060"/>
    <rect x="161.54" y="147.12" width="2.4744" height="6.191" style="fill:#2d2235"/>
    <rect x="148.45" y="127.49" width="5.5537" height="3.0223" style="fill:#5a3c35"/>
    <rect x="144.19" y="125.92" width="4.4373" height="2.6163" style="fill:#5a3c35"/>
    <rect x="147.71" y="126" width="16.207" height="1.9515" style="fill:#968a58"/>
    <rect x="134.68" y="114.54" width="19.196" height="1.737" style="fill:#b7a963"/>
    <rect x="115.57" y="136.25" width="4.4311" height="2.3626" style="fill:#936d40"/>
    <rect x="76.176" y="111.91" width="32.677" height="2.8356" style="fill:#e0bb5d"/>
    <rect x="79.322" y="110.33" width="1.5685" height="2.8356" style="fill:#e0bb5d"/>
    <rect x="68.905" y="120.68" width="40.113" height="2.7488" style="fill:#f0cb71"/>
    <rect x="63.832" y="140.56" width="39.197" height="2.5761" style="fill:#ffe892"/>
    <rect x="90.11" y="146.4" width="11" height="3.7268" style="fill:#82612f"/>
    <rect x="109.03" y="141.39" width="7.0624" height="2.6328" style="fill:#936e39"/>
    <rect x="44.767" y="231.54" width="6.4329" height="12.794" style="fill:#7a4933"/>
    <rect x="100.99" y="234.31" width="50.342" height="11.728" style="fill:#1a1225"/>
    <rect x="94.068" y="231.97" width="3.7433" height="5.1253" style="fill:#a6612d"/>
    <rect x="88.889" y="226.14" width="3.0895" height="5.982" style="fill:#b27c33"/>
    <rect x="44.524" y="223.9" width="1.5892" height="1.1325" style="fill:#af833e"/>
    <rect x="43.843" y="243" width="6.2244" height="9.5792" style="fill:#2e131e"/>
    <rect x="18.101" y="193.79" width="5.0051" height="15.525" style="fill:#946d48"/>
    <rect x="20.385" y="192.49" width="25.761" height="1.7722" style="fill:#946d48"/>
    <rect x="17.844" y="177.81" width="8.2009" height="3.743" style="fill:#332b37"/>
    <rect x="-1.2279" y="26.329" width="78.316" height="3.6082" style="fill:#979d67"/>
    <rect x="-1.4073" y="29.057" width="74.368" height="3.6082" style="fill:#979d67"/>
    <rect x="-3.9551" y="31.138" width="74.368" height="3.6082" style="fill:#979d67"/>
    <rect x="-6.467" y="33.147" width="74.368" height="3.6082" style="fill:#979d67"/>
    <rect x="58.979" y="31.994" width="7.2072" height="7.4942" style="fill:#9ea170"/>
    <rect x="53.613" y="125.23" width="5.3789" height="10.925" style="fill:#291218"/>
    <rect x="47.205" y="130.04" width="4.2" height="7.9" style="fill:#251928"/>
    <rect x="42.397" y="135.68" width="3.6258" height="7.4694" style="fill:#251928"/>
    <rect x="40.89" y="138.37" width="2.2622" height="4.4551" style="fill:#251928"/>
    <rect x="35.695" y="142.73" width="2.3877" height="20.514" style="fill:#312633"/>
    <rect x="33.184" y="146.32" width="2.9619" height="16.837" style="fill:#312633"/>
    <rect x="31.963" y="160.81" width="1.4547" height="2.2683" style="fill:#312633"/>
    <rect x="27.014" y="138.88" width="10.493" height="2.5799" style="fill:#a9823f"/>
    <rect x="35.656" y="65.102" width="3.5984" height="28.163" style="fill:#4d6154"/>
    <rect x="-1.5697" y="100.15" width="22.23" height="4.0843" style="fill:#6d684e"/>
    <rect x="109.49" y="35.659" width="5.2354" height="7.3401" style="fill:#35211f"/>
    <rect x="110.99" y="37.741" width="5.2354" height="7.3401" style="fill:#35211f"/>
    <rect x="112.36" y="39.822" width="5.2354" height="7.3401" style="fill:#35211f"/>
    <rect x="105.75" y="31.999" width="5.2354" height="7.3401" style="fill:#35211f"/>
    <rect x="84.517" y="27.42" width="19.127" height="7.6" style="fill:#674422"/>
    <rect x="76.976" y="26.996" width="3.2225" height="3.2799" style="fill:#66461c"/>
    <rect x="79.918" y="25.776" width="2.3612" height="2.3469" style="fill:#66461c"/>
    <rect x="72.885" y="29.795" width="4.8014" height="6.7248" style="fill:#66461c"/>
    <rect x="70.373" y="32.522" width="3.2942" height="5.6483" style="fill:#66461c"/>
    <rect x="70.696" y="33.419" width="3.2942" height="5.6483" style="fill:#66461c"/>
    <rect x="67.737" y="34.639" width="3.5257" height="5.433" style="fill:#66461c"/>
    <rect x="66.048" y="36.756" width="2.2726" height="3.0646" style="fill:#66461c"/>
    <rect x="63.37" y="43.542" width="1.2235" height="3.776" style="fill:#33161d"/>
    <rect x="65.685" y="44.702" width="1.5461" height="34.039" style="fill:#c99d4c"/>
    <rect x="103.87" y="61.209" width="1.5461" height="12.221" style="fill:#c99d4c"/>
    <rect x="66.241" y="95.574" width="14.86" height="4.6372" style="fill:#33161d"/>
    <rect x="123.45" y="47.19" width="1.7039" height="10.833" style="fill:#9ca36e"/>
    <rect x="64.527" y="83.995" width="4.009" height="12.224" style="fill:#3a2228"/>
    <rect x="65.694" y="86.025" width="3.9582" height="8.1135" style="fill:#3a2228"/>
    <rect x="66.658" y="87.548" width="3.9075" height="8.012" style="fill:#3a2228"/>
    <rect x="70.718" y="91.608" width="3.4" height="3.9014" style="fill:#3a2228"/>
    <rect x="67.572" y="93.587" width="8.4241" height="2.1252" style="fill:#3a2228"/>
    <rect x="68.942" y="90.466" width="3.4" height="3.9014" style="fill:#3a2228"/>
    <rect x="92.799" y="38.645" width="3.5488" height="1.5126" style="fill:#a77e3a"/>
    <rect x="75.787" y="196.77" width="11.125" height="7.3747" style="fill:#211826"/>
    <rect x="80.253" y="197.99" width="11.125" height="7.3747" style="fill:#211826"/>
    <rect x="97.155" y="193.62" width="13.836" height="19.186" style="fill:#1e1727"/>
    <rect x="89.392" y="191.54" width="10" height="18.853" style="fill:#1e1727"/>
    <rect x="86.347" y="190.48" width="10" height="18.853" style="fill:#1e1727"/>
    <rect x="83.708" y="185.87" width="10.444" height="21.939" style="fill:#1e1727"/>
    <rect x="97.466" y="212.59" width="6.54" height="4.0603" style="fill:#161422"/>
    <rect x="59.343" y="221.16" width="2.7469" height="3.5129" style="fill:#96632e"/>
    <rect x="61.712" y="224.32" width="2.6752" height="1.8622" style="fill:#96632e"/>
    <rect x="63.111" y="226.07" width="2.6752" height="1.8622" style="fill:#96632e"/>
    <rect x="98.648" y="222.29" width="3.8" height="5.7" style="fill:#a6643f"/>
    <rect x="88.929" y="215.03" width="3" height="5.3" style="fill:#bf893e"/>
    <rect x="90.436" y="216.03" width="3" height="5.3" style="fill:#bf893e"/>
    <rect x="92.015" y="217.61" width="3" height="5.3" style="fill:#bf893e"/>
    <rect x="93.666" y="218.54" width="3" height="5.3" style="fill:#bf893e"/>
    <rect x="94.599" y="219.55" width="3" height="5.3" style="fill:#bf893e"/>
    <rect x="64.716" y="202.09" width="5.2068" height="7.2" style="fill:#b5863b"/>
    <rect x="62.491" y="201.01" width="5.2068" height="7.2" style="fill:#b5863b"/>
    <rect x="78.808" y="228.9" width="5.3" height="4.6775" style="fill:#b07934"/>
    <rect x="83.146" y="221.83" width="3.8" height="7.2" style="fill:#b27c33"/>
    <rect x="33.754" y="202.67" width="2.0364" height="3.233" ry="0" style="fill:#ab8436"/>
    <rect x="29.555" y="199.77" width="2.0364" height="1.2235" ry="0" style="fill:#ab8436"/>
    <rect x="30.776" y="198.76" width="2.0364" height="1.2235" ry="0" style="fill:#ab8436"/>
    <rect x="31.565" y="197.9" width="2.0364" height="1.2235" ry="0" style="fill:#ab8436"/>
    <rect x="31.78" y="204.86" width="2.0364" height="1.2235" ry="0" style="fill:#ab8436"/>
    <rect x="23.886" y="206.59" width="2.0364" height="1.2235" ry="0" style="fill:#ab8436"/>
    <rect x="24.029" y="203.14" width="1.4622" height="2.5871" ry="0" style="fill:#ab8436"/>
  </g>
</svg>
